<?xml version="1.0" encoding="utf-8"?>
<!-- Generator: Adobe Illustrator 18.0.0, SVG Export Plug-In . SVG Version: 6.00 Build 0)  -->
<!DOCTYPE svg PUBLIC "-//W3C//DTD SVG 1.1//EN" "http://www.w3.org/Graphics/SVG/1.1/DTD/svg11.dtd">
<svg version="1.1" id="Camada_1" xmlns="http://www.w3.org/2000/svg" xmlns:xlink="http://www.w3.org/1999/xlink" x="0px" y="0px"
	 viewBox="0 0 78.5 78.5" enable-background="new 0 0 78.5 78.5" xml:space="preserve">
<g>
	<linearGradient id="SVGID_1_" gradientUnits="userSpaceOnUse" x1="39.2578" y1="1.874990e-04" x2="39.2578" y2="78.5158">
		<stop  offset="2.973729e-02" style="stop-color:#5A8097"/>
		<stop  offset="1" style="stop-color:#495794"/>
	</linearGradient>
	<path fill="url(#SVGID_1_)" d="M62.2,78.5H16.3C7.3,78.5,0,71.2,0,62.2V16.3C0,7.3,7.3,0,16.3,0h45.9c9,0,16.3,7.3,16.3,16.3v45.9
		C78.5,71.2,71.2,78.5,62.2,78.5z"/>
	<g>
		<g>
			<path fill="#FFFFFF" d="M24.7,13.3h-2.9c-1.2,0-1.5,3-1.5,4.2v2.7L24.7,13.3z"/>
			<polygon fill="#FFFFFF" points="21,21.5 28.3,27.8 28.3,24.3 35.3,24.3 26.6,15.8 			"/>
			<path fill="#FFFFFF" d="M57,51.3H28.3V29.9l-8-7.1v30.4c0,0.1,0,0.2,0,0.3c0,0.1,0,0.2,0,0.3v3.8c0,1.2,0.3,2.6,1.5,2.6H57
				c1.2,0,3.3-1.4,3.3-2.6v-3.8C60.3,52.7,58.2,51.3,57,51.3z"/>
			<path fill="#FFFFFF" d="M57,13.3H28.4l9.2,11H57c1.2,0,3.3-1.7,3.3-2.9v-3.8C60.3,16.3,58.2,13.3,57,13.3z"/>
		</g>
		<g>
			<rect x="49.1" y="28.5" fill="#FFFFFF" width="7.1" height="3.3"/>
		</g>
		<polygon fill="#E4E056" points="26.4,15.3 20.7,21.5 45.1,43.6 52.8,45 50.8,37.3 		"/>
		<polygon fill="#FFFFFF" points="48.3,44.3 52.4,45.4 51.9,42.3 48.3,42.3 		"/>
		<g>
			<polygon fill="#FFFFFF" points="46.3,30.8 46.3,28.3 43.4,28.3 			"/>
		</g>
		<path fill="#E4E056" d="M25.3,14.2L25.3,14.2l-1.1-1l-2.2-2l-1.1-1c-0.4-0.4-0.9-0.5-1.4-0.5c-0.6,0-1.1,0.2-1.5,0.7l-3,3.3
			c-0.8,0.8-0.7,2.1,0.1,2.9l1.1,1l2.2,2l1.1,1L25.3,14.2z"/>
		<g>
			<polygon fill="#FFFFFF" points="33.6,34.3 32.3,34.3 32.3,39.3 37.3,39.3 			"/>
		</g>
		<g>
			<polygon fill="#FFFFFF" points="45.5,45.1 44.7,45 44.2,44.6 40.4,41.3 32.3,41.3 32.3,47.3 47.3,47.3 47.3,45.3 			"/>
		</g>
		<g>
			<polygon fill="#FFFFFF" points="50.9,34.3 51.8,35.6 52.2,36.2 52.3,37.1 52.7,39.3 55.3,39.3 55.3,34.3 			"/>
		</g>
	</g>
</g>
</svg>
